/videos/e3a415c2-e8f6-79cd-5ce7-416e169b5a85/hls1/main/0.ts

{"Protocol":0,"Id":"e3a415c2e8f679cd5ce7416e169b5a85","Path":"/data/movies/To Me, the One Who Loved You (2022)/Kimi.wo.Aishita.Hitori.no.Boku.e.1080p.BDRip.10.bits.DD.x265-EMBER.mkv","EncoderPath":null,"EncoderProtocol":null,"Type":0,"Container":"mkv,webm","Size":1762903552,"Name":"Kimi.wo.Aishita.Hitori.no.Boku.e.1080p.BDRip.10.bits.DD.x265-EMBER","IsRemote":false,"ETag":"f6bedfd5752ee7432b7ec5cbf2baccbf","RunTimeTicks":59199361024,"ReadAtNativeFramerate":false,"IgnoreDts":false,"IgnoreIndex":false,"GenPtsInput":false,"SupportsTranscoding":true,"SupportsDirectStream":true,"SupportsDirectPlay":true,"IsInfiniteStream":false,"RequiresOpening":false,"OpenToken":null,"RequiresClosing":false,"LiveStreamId":null,"BufferMs":null,"RequiresLooping":false,"SupportsProbing":true,"VideoType":0,"IsoType":null,"Video3DFormat":null,"MediaStreams":[{"Codec":"hevc","CodecTag":null,"Language":null,"ColorRange":null,"ColorSpace":"bt709","ColorTransfer":"bt709","ColorPrimaries":"bt709","DvVersionMajor":null,"DvVersionMinor":null,"DvProfile":null,"DvLevel":null,"RpuPresentFlag":null,"ElPresentFlag":null,"BlPresentFlag":null,"DvBlSignalCompatibilityId":null,"Comment":null,"TimeBase":"1/1000","CodecTimeBase":null,"Title":"Presented By EMBER","VideoRange":"SDR","VideoRangeType":"SDR","VideoDoViTitle":null,"LocalizedUndefined":null,"LocalizedDefault":null,"LocalizedForced":null,"LocalizedExternal":null,"DisplayTitle":"Presented By EMBER - 1080p - HEVC - SDR","NalLengthSize":null,"IsInterlaced":false,"IsAVC":null,"ChannelLayout":null,"BitRate":2382327,"BitDepth":10,"RefFrames":1,"PacketLength":null,"Channels":null,"SampleRate":null,"IsDefault":true,"IsForced":false,"Height":1080,"Width":1920,"AverageFrameRate":23.976025,"RealFrameRate":23.976025,"Profile":"Main 10","Type":1,"AspectRatio":"16:9","Index":0,"Score":null,"IsExternal":false,"DeliveryMethod":null,"DeliveryUrl":null,"IsExternalUrl":null,"IsTextSubtitleStream":false,"SupportsExternalStream":false,"Path":null,"PixelFormat":"yuv420p10le","Level":120,"IsAnamorphic":null},{"Codec":"ac3","CodecTag":null,"Language":"jpn","ColorRange":null,"ColorSpace":null,"ColorTransfer":null,"ColorPrimaries":null,"DvVersionMajor":null,"DvVersionMinor":null,"DvProfile":null,"DvLevel":null,"RpuPresentFlag":null,"ElPresentFlag":null,"BlPresentFlag":null,"DvBlSignalCompatibilityId":null,"Comment":null,"TimeBase":"1/1000","CodecTimeBase":null,"Title":null,"VideoRange":null,"VideoRangeType":null,"VideoDoViTitle":null,"LocalizedUndefined":null,"LocalizedDefault":null,"LocalizedForced":null,"LocalizedExternal":null,"DisplayTitle":"Japanese - Dolby Digital - 5.1 - Default","NalLengthSize":null,"IsInterlaced":false,"IsAVC":null,"ChannelLayout":"5.1","BitRate":448000,"BitDepth":null,"RefFrames":null,"PacketLength":null,"Channels":6,"SampleRate":48000,"IsDefault":true,"IsForced":false,"Height":null,"Width":null,"AverageFrameRate":null,"RealFrameRate":null,"Profile":null,"Type":0,"AspectRatio":null,"Index":1,"Score":null,"IsExternal":false,"DeliveryMethod":null,"DeliveryUrl":null,"IsExternalUrl":null,"IsTextSubtitleStream":false,"SupportsExternalStream":false,"Path":null,"PixelFormat":null,"Level":0,"IsAnamorphic":null},{"Codec":"ass","CodecTag":null,"Language":"eng","ColorRange":null,"ColorSpace":null,"ColorTransfer":null,"ColorPrimaries":null,"DvVersionMajor":null,"DvVersionMinor":null,"DvProfile":null,"DvLevel":null,"RpuPresentFlag":null,"ElPresentFlag":null,"BlPresentFlag":null,"DvBlSignalCompatibilityId":null,"Comment":null,"TimeBase":"1/1000","CodecTimeBase":null,"Title":null,"VideoRange":null,"VideoRangeType":null,"VideoDoViTitle":null,"LocalizedUndefined":"Undefined","LocalizedDefault":"Default","LocalizedForced":"Forced","LocalizedExternal":"External","DisplayTitle":"English - Default - ASS","NalLengthSize":null,"IsInterlaced":false,"IsAVC":null,"ChannelLayout":null,"BitRate":null,"BitDepth":null,"RefFrames":null,"PacketLength":null,"Channels":null,"SampleRate":null,"IsDefault":true,"IsForced":false,"Height":null,"Width":null,"AverageFrameRate":null,"RealFrameRate":null,"Profile":null,"Type":2,"AspectRatio":null,"Index":2,"Score":null,"IsExternal":false,"DeliveryMethod":null,"DeliveryUrl":null,"IsExternalUrl":null,"IsTextSubtitleStream":true,"SupportsExternalStream":true,"Path":null,"PixelFormat":null,"Level":0,"IsAnamorphic":null},{"Codec":"mjpeg","CodecTag":null,"Language":null,"ColorRange":null,"ColorSpace":"bt470bg","ColorTransfer":null,"ColorPrimaries":null,"DvVersionMajor":null,"DvVersionMinor":null,"DvProfile":null,"DvLevel":null,"RpuPresentFlag":null,"ElPresentFlag":null,"BlPresentFlag":null,"DvBlSignalCompatibilityId":null,"Comment":null,"TimeBase":"1/90000","CodecTimeBase":null,"Title":null,"VideoRange":null,"VideoRangeType":null,"VideoDoViTitle":null,"LocalizedUndefined":null,"LocalizedDefault":null,"LocalizedForced":null,"LocalizedExternal":null,"DisplayTitle":null,"NalLengthSize":null,"IsInterlaced":false,"IsAVC":null,"ChannelLayout":null,"BitRate":null,"BitDepth":8,"RefFrames":1,"PacketLength":null,"Channels":null,"SampleRate":null,"IsDefault":false,"IsForced":false,"Height":360,"Width":640,"AverageFrameRate":null,"RealFrameRate":90000,"Profile":"Baseline","Type":3,"AspectRatio":"16:9","Index":3,"Score":null,"IsExternal":false,"DeliveryMethod":null,"DeliveryUrl":null,"IsExternalUrl":null,"IsTextSubtitleStream":false,"SupportsExternalStream":false,"Path":null,"PixelFormat":"yuvj444p","Level":-99,"IsAnamorphic":null}],"MediaAttachments":[{"Codec":"mjpeg","CodecTag":"[0][0][0][0]","Comment":null,"Index":3,"FileName":"cover.jpg","MimeType":"image/jpeg","DeliveryUrl":null},{"Codec":null,"CodecTag":"[0][0][0][0]","Comment":null,"Index":4,"FileName":"CONSOLAB.TTF","MimeType":"font/ttf","DeliveryUrl":null},{"Codec":null,"CodecTag":"[0][0][0][0]","Comment":null,"Index":5,"FileName":"Roboto-Medium.ttf","MimeType":"font/ttf","DeliveryUrl":null},{"Codec":null,"CodecTag":"[0][0][0][0]","Comment":null,"Index":6,"FileName":"Roboto-MediumItalic.ttf","MimeType":"font/ttf","DeliveryUrl":null},{"Codec":null,"CodecTag":"[0][0][0][0]","Comment":null,"Index":7,"FileName":"times.ttf","MimeType":"font/ttf","DeliveryUrl":null},{"Codec":null,"CodecTag":"[0][0][0][0]","Comment":null,"Index":8,"FileName":"timesbd.ttf","MimeType":"font/ttf","DeliveryUrl":null},{"Codec":null,"CodecTag":"[0][0][0][0]","Comment":null,"Index":9,"FileName":"trebuc.ttf","MimeType":"font/ttf","DeliveryUrl":null},{"Codec":null,"CodecTag":"[0][0][0][0]","Comment":null,"Index":10,"FileName":"trebucbd.ttf","MimeType":"font/ttf","DeliveryUrl":null},{"Codec":null,"CodecTag":"[0][0][0][0]","Comment":null,"Index":11,"FileName":"verdana.ttf","MimeType":"font/ttf","DeliveryUrl":null},{"Codec":null,"CodecTag":"[0][0][0][0]","Comment":null,"Index":12,"FileName":"verdanab.ttf","MimeType":"font/ttf","DeliveryUrl":null},{"Codec":null,"CodecTag":"[0][0][0][0]","Comment":null,"Index":13,"FileName":"arial.ttf","MimeType":"font/ttf","DeliveryUrl":null},{"Codec":null,"CodecTag":"[0][0][0][0]","Comment":null,"Index":14,"FileName":"arialbd.ttf","MimeType":"font/ttf","DeliveryUrl":null},{"Codec":null,"CodecTag":"[0][0][0][0]","Comment":null,"Index":15,"FileName":"comic.ttf","MimeType":"font/ttf","DeliveryUrl":null},{"Codec":null,"CodecTag":"[0][0][0][0]","Comment":null,"Index":16,"FileName":"comicbd.ttf","MimeType":"font/ttf","DeliveryUrl":null},{"Codec":null,"CodecTag":"[0][0][0][0]","Comment":null,"Index":17,"FileName":"CONSOLA.TTF","MimeType":"font/ttf","DeliveryUrl":null}],"Formats":[],"Bitrate":2830327,"Timestamp":null,"RequiredHttpHeaders":{},"TranscodingUrl":null,"TranscodingSubProtocol":null,"TranscodingContainer":null,"AnalyzeDurationMs":null,"DefaultAudioStreamIndex":null,"DefaultSubtitleStreamIndex":null}

/usr/lib/jellyfin-ffmpeg/ffmpeg -analyzeduration 200M -f matroska,webm -autorotate 0 -i file:"/data/movies/To Me, the One Who Loved You (2022)/Kimi.wo.Aishita.Hitori.no.Boku.e.1080p.BDRip.10.bits.DD.x265-EMBER.mkv" -map_metadata -1 -map_chapters -1 -threads 0 -map 0:0 -map 0:1 -map -0:s -codec:v:0 libx264 -preset veryfast -crf 23 -maxrate 4764654 -bufsize 9529308 -x264opts:0 subme=0:me_range=4:rc_lookahead=10:me=dia:no_chroma_me:8x8dct=0:partitions=none -force_key_frames:0 "expr:gte(t,0+n_forced*3)" -sc_threshold:v:0 0 -vf "setparams=color_primaries=bt709:color_trc=bt709:colorspace=bt709,scale=trunc(min(max(iw\,ih*a)\,min(1920\,1080*a))/2)*2:trunc(min(max(iw/a\,ih)\,min(1920/a\,1080))/2)*2,format=yuv420p" -codec:a:0 libfdk_aac -ac 2 -ab 384000 -af "volume=2" -copyts -avoid_negative_ts disabled -max_muxing_queue_size 2048 -f hls -max_delay 5000000 -hls_time 3 -hls_segment_type mpegts -start_number 0 -hls_segment_filename "/data/transcodes/e880d3f128a44d21fa92ffa72b6e5cff%d.ts" -hls_playlist_type vod -hls_list_size 0 -y "/data/transcodes/e880d3f128a44d21fa92ffa72b6e5cff.m3u8"


ffmpeg version 5.1.3-Jellyfin Copyright (c) 2000-2022 the FFmpeg developers
  built with gcc 11 (Ubuntu 11.3.0-1ubuntu1~22.04.1)
  configuration: --prefix=/usr/lib/jellyfin-ffmpeg --target-os=linux --extra-libs=-lfftw3f --extra-version=Jellyfin --disable-doc --disable-ffplay --disable-ptx-compression --disable-static --disable-libxcb --disable-sdl2 --disable-xlib --enable-lto --enable-gpl --enable-version3 --enable-shared --enable-gmp --enable-gnutls --enable-chromaprint --enable-libdrm --enable-libass --enable-libfreetype --enable-libfribidi --enable-libfontconfig --enable-libbluray --enable-libmp3lame --enable-libopus --enable-libtheora --enable-libvorbis --enable-libopenmpt --enable-libdav1d --enable-libwebp --enable-libvpx --enable-libx264 --enable-libx265 --enable-libzvbi --enable-libzimg --enable-libfdk-aac --arch=amd64 --enable-libsvtav1 --enable-libshaderc --enable-libplacebo --enable-vulkan --enable-opencl --enable-vaapi --enable-amf --enable-libmfx --enable-ffnvcodec --enable-cuda --enable-cuda-llvm --enable-cuvid --enable-nvdec --enable-nvenc
  libavutil      57. 28.100 / 57. 28.100
  libavcodec     59. 37.100 / 59. 37.100
  libavformat    59. 27.100 / 59. 27.100
  libavdevice    59.  7.100 / 59.  7.100
  libavfilter     8. 44.100 /  8. 44.100
  libswscale      6.  7.100 /  6.  7.100
  libswresample   4.  7.100 /  4.  7.100
  libpostproc    56.  6.100 / 56.  6.100
[matroska,webm @ 0x55e2a4eaed80] Stream #3: not enough frames to estimate rate; consider increasing probesize
[matroska,webm @ 0x55e2a4eaed80] Could not find codec parameters for stream 4 (Attachment: none): unknown codec
Consider increasing the value for the 'analyzeduration' (200000000) and 'probesize' (5000000) options
[matroska,webm @ 0x55e2a4eaed80] Could not find codec parameters for stream 5 (Attachment: none): unknown codec
Consider increasing the value for the 'analyzeduration' (200000000) and 'probesize' (5000000) options
[matroska,webm @ 0x55e2a4eaed80] Could not find codec parameters for stream 6 (Attachment: none): unknown codec
Consider increasing the value for the 'analyzeduration' (200000000) and 'probesize' (5000000) options
[matroska,webm @ 0x55e2a4eaed80] Could not find codec parameters for stream 7 (Attachment: none): unknown codec
Consider increasing the value for the 'analyzeduration' (200000000) and 'probesize' (5000000) options
[matroska,webm @ 0x55e2a4eaed80] Could not find codec parameters for stream 8 (Attachment: none): unknown codec
Consider increasing the value for the 'analyzeduration' (200000000) and 'probesize' (5000000) options
[matroska,webm @ 0x55e2a4eaed80] Could not find codec parameters for stream 9 (Attachment: none): unknown codec
Consider increasing the value for the 'analyzeduration' (200000000) and 'probesize' (5000000) options
[matroska,webm @ 0x55e2a4eaed80] Could not find codec parameters for stream 10 (Attachment: none): unknown codec
Consider increasing the value for the 'analyzeduration' (200000000) and 'probesize' (5000000) options
[matroska,webm @ 0x55e2a4eaed80] Could not find codec parameters for stream 11 (Attachment: none): unknown codec
Consider increasing the value for the 'analyzeduration' (200000000) and 'probesize' (5000000) options
[matroska,webm @ 0x55e2a4eaed80] Could not find codec parameters for stream 12 (Attachment: none): unknown codec
Consider increasing the value for the 'analyzeduration' (200000000) and 'probesize' (5000000) options
[matroska,webm @ 0x55e2a4eaed80] Could not find codec parameters for stream 13 (Attachment: none): unknown codec
Consider increasing the value for the 'analyzeduration' (200000000) and 'probesize' (5000000) options
[matroska,webm @ 0x55e2a4eaed80] Could not find codec parameters for stream 14 (Attachment: none): unknown codec
Consider increasing the value for the 'analyzeduration' (200000000) and 'probesize' (5000000) options
[matroska,webm @ 0x55e2a4eaed80] Could not find codec parameters for stream 15 (Attachment: none): unknown codec
Consider increasing the value for the 'analyzeduration' (200000000) and 'probesize' (5000000) options
[matroska,webm @ 0x55e2a4eaed80] Could not find codec parameters for stream 16 (Attachment: none): unknown codec
Consider increasing the value for the 'analyzeduration' (200000000) and 'probesize' (5000000) options
[matroska,webm @ 0x55e2a4eaed80] Could not find codec parameters for stream 17 (Attachment: none): unknown codec
Consider increasing the value for the 'analyzeduration' (200000000) and 'probesize' (5000000) options
Input #0, matroska,webm, from 'file:/data/movies/To Me, the One Who Loved You (2022)/Kimi.wo.Aishita.Hitori.no.Boku.e.1080p.BDRip.10.bits.DD.x265-EMBER.mkv':
  Metadata:
    title           : Kimi.wo.Aishita.Hitori.no.Boku.e.1080p.BDRip.10.bits.DD.x265-EMBER
    encoder         : libebml v1.4.2 + libmatroska v1.6.4
    creation_time   : 2023-04-22T13:00:51.000000Z
  Duration: 01:38:39.94, start: 0.000000, bitrate: 2382 kb/s
  Chapters:
    Chapter #0:0: start 0.000000, end 670.252911
      Metadata:
        title           : Chapter 01
    Chapter #0:1: start 670.252911, end 1251.625356
      Metadata:
        title           : Chapter 02
    Chapter #0:2: start 1251.625356, end 1937.018400
      Metadata:
        title           : Chapter 03
    Chapter #0:3: start 1937.018400, end 2506.587400
      Metadata:
        title           : Chapter 04
    Chapter #0:4: start 2506.587400, end 3010.507489
      Metadata:
        title           : Chapter 05
    Chapter #0:5: start 3010.507489, end 3556.094200
      Metadata:
        title           : Chapter 06
    Chapter #0:6: start 3556.094200, end 3951.739444
      Metadata:
        title           : Chapter 07
    Chapter #0:7: start 3951.739444, end 4749.995244
      Metadata:
        title           : Chapter 08
    Chapter #0:8: start 4749.995244, end 5679.173489
      Metadata:
        title           : Chapter 09
    Chapter #0:9: start 5679.173489, end 5919.936000
      Metadata:
        title           : Chapter 10
  Stream #0:0: Video: hevc (Main 10), yuv420p10le(tv, bt709), 1920x1080, SAR 1:1 DAR 16:9, 23.98 fps, 23.98 tbr, 1k tbn (default)
    Metadata:
      title           : Presented By EMBER
      BPS             : 1923495
      DURATION        : 01:38:39.914000000
      NUMBER_OF_FRAMES: 141936
      NUMBER_OF_BYTES : 1423366154
      _STATISTICS_WRITING_APP: mkvmerge v69.0.0 ('Day And Age') 64-bit
      _STATISTICS_WRITING_DATE_UTC: 2023-04-22 13:00:51
      _STATISTICS_TAGS: BPS DURATION NUMBER_OF_FRAMES NUMBER_OF_BYTES
  Stream #0:1(jpn): Audio: ac3, 48000 Hz, 5.1(side), fltp, 448 kb/s (default)
    Metadata:
      BPS             : 448000
      DURATION        : 01:38:39.936000000
      NUMBER_OF_FRAMES: 184998
      NUMBER_OF_BYTES : 331516416
      _STATISTICS_WRITING_APP: mkvmerge v69.0.0 ('Day And Age') 64-bit
      _STATISTICS_WRITING_DATE_UTC: 2023-04-22 13:00:51
      _STATISTICS_TAGS: BPS DURATION NUMBER_OF_FRAMES NUMBER_OF_BYTES
  Stream #0:2(eng): Subtitle: ass (default)
    Metadata:
      BPS             : 133
      DURATION        : 01:37:38.870000000
      NUMBER_OF_FRAMES: 1317
      NUMBER_OF_BYTES : 98060
      _STATISTICS_WRITING_APP: mkvmerge v69.0.0 ('Day And Age') 64-bit
      _STATISTICS_WRITING_DATE_UTC: 2023-04-22 13:00:51
      _STATISTICS_TAGS: BPS DURATION NUMBER_OF_FRAMES NUMBER_OF_BYTES
  Stream #0:3: Video: mjpeg (Baseline), yuvj444p(pc, bt470bg/unknown/unknown), 640x360 [SAR 72:72 DAR 16:9], 90k tbr, 90k tbn (attached pic)
    Metadata:
      filename        : cover.jpg
      mimetype        : image/jpeg
  Stream #0:4: Attachment: none
    Metadata:
      filename        : CONSOLAB.TTF
      mimetype        : font/ttf
  Stream #0:5: Attachment: none
    Metadata:
      filename        : Roboto-Medium.ttf
      mimetype        : font/ttf
  Stream #0:6: Attachment: none
    Metadata:
      filename        : Roboto-MediumItalic.ttf
      mimetype        : font/ttf
  Stream #0:7: Attachment: none
    Metadata:
      filename        : times.ttf
      mimetype        : font/ttf
  Stream #0:8: Attachment: none
    Metadata:
      filename        : timesbd.ttf
      mimetype        : font/ttf
  Stream #0:9: Attachment: none
    Metadata:
      filename        : trebuc.ttf
      mimetype        : font/ttf
  Stream #0:10: Attachment: none
    Metadata:
      filename        : trebucbd.ttf
      mimetype        : font/ttf
  Stream #0:11: Attachment: none
    Metadata:
      filename        : verdana.ttf
      mimetype        : font/ttf
  Stream #0:12: Attachment: none
    Metadata:
      filename        : verdanab.ttf
      mimetype        : font/ttf
  Stream #0:13: Attachment: none
    Metadata:
      filename        : arial.ttf
      mimetype        : font/ttf
  Stream #0:14: Attachment: none
    Metadata:
      filename        : arialbd.ttf
      mimetype        : font/ttf
  Stream #0:15: Attachment: none
    Metadata:
      filename        : comic.ttf
      mimetype        : font/ttf
  Stream #0:16: Attachment: none
    Metadata:
      filename        : comicbd.ttf
      mimetype        : font/ttf
  Stream #0:17: Attachment: none
    Metadata:
      filename        : CONSOLA.TTF
      mimetype        : font/ttf
Stream mapping:
  Stream #0:0 -> #0:0 (hevc (native) -> h264 (libx264))
  Stream #0:1 -> #0:1 (ac3 (native) -> aac (libfdk_aac))
Press [q] to stop, [?] for help
[libx264 @ 0x55e2a55a4e00] using SAR=1/1
[libx264 @ 0x55e2a55a4e00] using cpu capabilities: MMX2 SSE2Fast SSSE3 SSE4.2 AVX FMA3 BMI2 AVX2
[libx264 @ 0x55e2a55a4e00] profile Main, level 4.0, 4:2:0, 8-bit
[libx264 @ 0x55e2a55a4e00] 264 - core 163 r3060 5db6aa6 - H.264/MPEG-4 AVC codec - Copyleft 2003-2021 - http://www.videolan.org/x264.html - options: cabac=1 ref=1 deblock=1:0:0 analyse=0x1:0 me=dia subme=0 psy=1 psy_rd=1.00:0.00 mixed_ref=0 me_range=4 chroma_me=0 trellis=0 8x8dct=0 cqm=0 deadzone=21,11 fast_pskip=1 chroma_qp_offset=0 threads=6 lookahead_threads=1 sliced_threads=0 nr=0 decimate=1 interlaced=0 bluray_compat=0 constrained_intra=0 bframes=3 b_pyramid=2 b_adapt=1 b_bias=0 direct=1 weightb=1 open_gop=0 weightp=1 keyint=250 keyint_min=23 scenecut=0 intra_refresh=0 rc_lookahead=10 rc=crf mbtree=1 crf=23.0 qcomp=0.60 qpmin=0 qpmax=69 qpstep=4 vbv_maxrate=4764 vbv_bufsize=9529 crf_max=0.0 nal_hrd=none filler=0 ip_ratio=1.40 aq=1:1.00
Output #0, hls, to '/data/transcodes/e880d3f128a44d21fa92ffa72b6e5cff.m3u8':
  Metadata:
    encoder         : Lavf59.27.100
  Stream #0:0: Video: h264, yuv420p(tv, bt709, progressive), 1920x1080 [SAR 1:1 DAR 16:9], q=2-31, 23.98 fps, 90k tbn (default)
    Metadata:
      encoder         : Lavc59.37.100 libx264
    Side data:
      cpb: bitrate max/min/avg: 4764000/0/0 buffer size: 9529000 vbv_delay: N/A
  Stream #0:1: Audio: aac, 48000 Hz, stereo, s16, 384 kb/s (default)
    Metadata:
      encoder         : Lavc59.37.100 libfdk_aac
frame=    1 fps=0.0 q=0.0 size=N/A time=00:00:00.00 bitrate=N/A speed=   0x    
frame=   11 fps=0.0 q=0.0 size=N/A time=00:00:00.25 bitrate=N/A speed=0.353x    
frame=   26 fps= 21 q=28.0 size=N/A time=00:00:01.02 bitrate=N/A speed=0.834x    
frame=   47 fps= 27 q=28.0 size=N/A time=00:00:01.89 bitrate=N/A speed= 1.1x    
frame=   61 fps= 27 q=28.0 size=N/A time=00:00:02.41 bitrate=N/A speed=1.08x    
frame=   75 fps= 27 q=28.0 size=N/A time=00:00:02.92 bitrate=N/A speed=1.05x    
frame=   90 fps= 27 q=28.0 size=N/A time=00:00:03.69 bitrate=N/A speed= 1.1x    
[hls @ 0x55e2a4f0dc00] Opening '/data/transcodes/e880d3f128a44d21fa92ffa72b6e5cff0.ts' for writing
frame=  104 fps= 27 q=28.0 size=N/A time=00:00:04.07 bitrate=N/A speed=1.05x    
frame=  119 fps= 27 q=28.0 size=N/A time=00:00:04.84 bitrate=N/A speed= 1.1x    
frame=  133 fps= 27 q=28.0 size=N/A time=00:00:05.29 bitrate=N/A speed=1.07x    
frame=  147 fps= 27 q=28.0 size=N/A time=00:00:06.01 bitrate=N/A speed=1.11x    
frame=  161 fps= 27 q=28.0 size=N/A time=00:00:06.46 bitrate=N/A speed=1.09x    
[hls @ 0x55e2a4f0dc00] Opening '/data/transcodes/e880d3f128a44d21fa92ffa72b6e5cff1.ts' for writing
frame=  177 fps= 27 q=28.0 size=N/A time=00:00:07.23 bitrate=N/A speed=1.12x    
frame=  189 fps= 27 q=28.0 size=N/A time=00:00:07.78 bitrate=N/A speed=1.12x    
frame=  201 fps= 27 q=28.0 size=N/A time=00:00:08.29 bitrate=N/A speed= 1.1x    
frame=  212 fps= 26 q=28.0 size=N/A time=00:00:08.57 bitrate=N/A speed=1.07x    
frame=  226 fps= 26 q=28.0 size=N/A time=00:00:09.32 bitrate=N/A speed=1.09x    
[hls @ 0x55e2a4f0dc00] Opening '/data/transcodes/e880d3f128a44d21fa92ffa72b6e5cff2.ts' for writing
frame=  241 fps= 26 q=28.0 size=N/A time=00:00:09.89 bitrate=N/A speed=1.09x    
frame=  250 fps= 26 q=28.0 size=N/A time=00:00:10.17 bitrate=N/A speed=1.05x    
frame=  268 fps= 26 q=30.0 size=N/A time=00:00:10.88 bitrate=N/A speed=1.06x    
frame=  280 fps= 26 q=28.0 size=N/A time=00:00:11.62 bitrate=N/A speed=1.08x    
frame=  290 fps= 26 q=31.0 size=N/A time=00:00:11.84 bitrate=N/A speed=1.05x    
frame=  306 fps= 26 q=30.0 size=N/A time=00:00:12.65 bitrate=N/A speed=1.07x    
[hls @ 0x55e2a4f0dc00] Opening '/data/transcodes/e880d3f128a44d21fa92ffa72b6e5cff3.ts' for writing
frame=  319 fps= 26 q=31.0 size=N/A time=00:00:13.16 bitrate=N/A speed=1.06x    
frame=  339 fps= 26 q=28.0 size=N/A time=00:00:13.93 bitrate=N/A speed=1.08x    
frame=  377 fps= 28 q=28.0 size=N/A time=00:00:15.48 bitrate=N/A speed=1.16x    
[hls @ 0x55e2a4f0dc00] Opening '/data/transcodes/e880d3f128a44d21fa92ffa72b6e5cff4.ts' for writing
frame=  413 fps= 30 q=28.0 size=N/A time=00:00:17.00 bitrate=N/A speed=1.22x    
frame=  438 fps= 30 q=28.0 size=N/A time=00:00:18.09 bitrate=N/A speed=1.25x    
[hls @ 0x55e2a4f0dc00] Opening '/data/transcodes/e880d3f128a44d21fa92ffa72b6e5cff5.ts' for writing
frame=  468 fps= 31 q=28.0 size=N/A time=00:00:19.37 bitrate=N/A speed= 1.3x    
frame=  497 fps= 32 q=28.0 size=N/A time=00:00:20.52 bitrate=N/A speed=1.33x    
frame=  524 fps= 33 q=28.0 size=N/A time=00:00:21.80 bitrate=N/A speed=1.36x    
[hls @ 0x55e2a4f0dc00] Opening '/data/transcodes/e880d3f128a44d21fa92ffa72b6e5cff6.ts' for writing
frame=  546 fps= 33 q=28.0 size=N/A time=00:00:22.57 bitrate=N/A speed=1.37x    
frame=  562 fps= 33 q=28.0 size=N/A time=00:00:23.33 bitrate=N/A speed=1.37x    
frame=  581 fps= 33 q=28.0 size=N/A time=00:00:24.10 bitrate=N/A speed=1.38x    
[hls @ 0x55e2a4f0dc00] Opening '/data/transcodes/e880d3f128a44d21fa92ffa72b6e5cff7.ts' for writing
frame=  610 fps= 34 q=28.0 size=N/A time=00:00:25.38 bitrate=N/A speed=1.41x    
frame=  641 fps= 35 q=28.0 size=N/A time=00:00:26.56 bitrate=N/A speed=1.43x    
[hls @ 0x55e2a4f0dc00] Opening '/data/transcodes/e880d3f128a44d21fa92ffa72b6e5cff8.ts' for writing
frame=  676 fps= 36 q=28.0 size=N/A time=00:00:28.09 bitrate=N/A speed=1.48x    
frame=  702 fps= 36 q=28.0 size=N/A time=00:00:29.18 bitrate=N/A speed=1.49x    
frame=  728 fps= 36 q=28.0 size=N/A time=00:00:30.18 bitrate=N/A speed=1.51x    
[hls @ 0x55e2a4f0dc00] Opening '/data/transcodes/e880d3f128a44d21fa92ffa72b6e5cff9.ts' for writing
frame=  757 fps= 37 q=28.0 size=N/A time=00:00:31.46 bitrate=N/A speed=1.53x    
frame=  788 fps= 37 q=28.0 size=N/A time=00:00:32.74 bitrate=N/A speed=1.56x    
[hls @ 0x55e2a4f0dc00] Opening '/data/transcodes/e880d3f128a44d21fa92ffa72b6e5cff10.ts' for writing
frame=  817 fps= 38 q=28.0 size=N/A time=00:00:34.21 bitrate=N/A speed=1.59x    
frame=  848 fps= 38 q=28.0 size=N/A time=00:00:35.30 bitrate=N/A speed= 1.6x    
frame=  880 fps= 39 q=25.0 size=N/A time=00:00:36.48 bitrate=N/A speed=1.62x    
[hls @ 0x55e2a4f0dc00] Opening '/data/transcodes/e880d3f128a44d21fa92ffa72b6e5cff11.ts' for writing
frame=  913 fps= 40 q=28.0 size=N/A time=00:00:38.01 bitrate=N/A speed=1.65x    
frame=  946 fps= 40 q=28.0 size=N/A time=00:00:39.55 bitrate=N/A speed=1.68x    
[hls @ 0x55e2a4f0dc00] Opening '/data/transcodes/e880d3f128a44d21fa92ffa72b6e5cff12.ts' for writing
frame=  976 fps= 40 q=28.0 size=N/A time=00:00:40.57 bitrate=N/A speed=1.68x    
frame= 1006 fps= 41 q=28.0 size=N/A time=00:00:41.89 bitrate=N/A speed= 1.7x    
[hls @ 0x55e2a4f0dc00] Opening '/data/transcodes/e880d3f128a44d21fa92ffa72b6e5cff13.ts' for writing
frame= 1034 fps= 41 q=28.0 size=N/A time=00:00:43.17 bitrate=N/A speed=1.72x    

[q] command received. Exiting.

[hls @ 0x55e2a4f0dc00] Opening '/data/transcodes/e880d3f128a44d21fa92ffa72b6e5cff14.ts' for writing
frame= 1047 fps= 41 q=-1.0 Lsize=N/A time=00:00:43.47 bitrate=N/A speed= 1.7x    
video:8395kB audio:2060kB subtitle:0kB other streams:0kB global headers:0kB muxing overhead: unknown
[libx264 @ 0x55e2a55a4e00] frame I:15    Avg QP:14.97  size: 47532
[libx264 @ 0x55e2a55a4e00] frame P:296   Avg QP:18.94  size: 11916
[libx264 @ 0x55e2a55a4e00] frame B:736   Avg QP:21.83  size:  5917
[libx264 @ 0x55e2a55a4e00] consecutive B-frames:  4.0%  4.0%  8.3% 83.7%
[libx264 @ 0x55e2a55a4e00] mb I  I16..4: 87.5%  0.0% 12.5%
[libx264 @ 0x55e2a55a4e00] mb P  I16..4: 28.4%  0.0%  0.0%  P16..4: 11.9%  0.0%  0.0%  0.0%  0.0%    skip:59.7%
[libx264 @ 0x55e2a55a4e00] mb B  I16..4:  5.5%  0.0%  0.0%  B16..8: 10.7%  0.0%  0.0%  direct: 6.4%  skip:77.4%  L0:41.2% L1:46.9% BI:11.9%
[libx264 @ 0x55e2a55a4e00] coded y,uvDC,uvAC intra: 21.6% 27.9% 3.8% inter: 3.5% 8.2% 0.0%
[libx264 @ 0x55e2a55a4e00] i16 v,h,dc,p: 43% 21% 18% 19%
[libx264 @ 0x55e2a55a4e00] i4 v,h,dc,ddl,ddr,vr,hd,vl,hu: 19% 27% 19%  8%  6%  4%  7%  3%  7%
[libx264 @ 0x55e2a55a4e00] i8c dc,h,v,p: 56% 20% 18%  6%
[libx264 @ 0x55e2a55a4e00] Weighted P-Frames: Y:12.5% UV:5.7%
[libx264 @ 0x55e2a55a4e00] kb/s:1574.64